@startuml
class Member{
e-mail : String
}
class BoardMember{

}
class Event{
date : Date
description : String

assign(l : Location) : void
}
class Conference{
max_attendees : Integer
}
class BoardMeeting{

}
class Location{
description : String
address : String
}
class Person{
name : String
}
class AAUOC{
newLocation(l : Location) : void
newEvent(e : Event) : void
newPerson(p : Person) : void
informEvent(e : Event) : void
register(m : Member,e : Event) : void
}

Event <|-- Conference
Event <|-- BoardMeeting
Person <|-- Member
Member <|-- BoardMember
AAUOC o-- "0..*" Person
AAUOC o-- "0..*" Event
AAUOC o-- "0..*" Location
Person "0..*" -- "0..*" Conference : attendsTo
Member "0..*" -- "0..*" Event : attendsTo
BoardMember "0..*" -- "0..*" BoardMeeting : attendsTo
Location "1" -- "0..*" Event : isLocatedIn
@enduml